# xmcd
#
# Track frame offsets: 
#        150
#        10455
#        26610
#        36452
#        47545
#        62480
#        73405
#        87910
#        105002
#        116537
#        129725
#        145460
#        158830
#        172090
#        186030
#        198262
#        213342
#        226805
#        238317
#        252662
#        264470
#        273437
#        287647
#        302757
#        314450
#        326522
#
# Disc length: 4564 seconds
#
# Revision: 2
# Processed by: cddbd v1.5.2PL0 Copyright (c) Steve Scherf et al.
# Submitted via: ExactAudioCopyFreeDBPlugin 1.0
#
DISCID=8211d21a
DTITLE=Various Artist - 70 Ounces Of Gold - Country Gold
DYEAR=1996
DGENRE=Country
TTITLE0=George Hamilton IV - Abilene
TTITLE1=Lee Greenwood - Somebody's Gonna Love You
TTITLE2=Ray Price - Make The World Go Away
TTITLE3=Little Jimmy Dickens - May The Bird Of Paradise Fly Up Your No
TTITLE3=se
TTITLE4=Jeannie C. Riley - Harper Valley P.T.A.
TTITLE5=Faron Young - Wine Me Up
TTITLE6=Lee Greenwood - God Bless The U.S.A.
TTITLE7=Ray Price - For The Good Times
TTITLE8=Sammi Smith - Help Me Make It Through The Night
TTITLE9=Lynn Anderson - Rose Garden
TTITLE10=Ray Price - I Won't Mention It Again
TTITLE11=Johnny Paycheck - She's All I Got
TTITLE12=Margo Smith - Don't Break The Heart That Loves You
TTITLE13=Lee Greenwood - I.O.U.
TTITLE14=Jeanne Pruett - Satin Sheets
TTITLE15=Barbara Fairchild - Baby Doll
TTITLE16=Don Gibson - One Day At A Time
TTITLE17=Freddy Fender - Before The Next Teardrop Falls
TTITLE18=Johnny Paycheck - Friend, Lover, Wife
TTITLE19=Donna Fargo - It Do Feel Good
TTITLE20=Margo Smith - There I Said It
TTITLE21=Narvel Felts - Funny How Time Slips Away
TTITLE22=Lee Greenwood - Going Going Gone
TTITLE23=Donna Fargo - The Happiest Girl In The Whole U.S.A.
TTITLE24=Johnny Paycheck - Take This Job And Shove It
TTITLE25=Johnny Lee - Lookin' For Love
EXTD=
EXTT0=
EXTT1=
EXTT2=
EXTT3=
EXTT4=
EXTT5=
EXTT6=
EXTT7=
EXTT8=
EXTT9=
EXTT10=
EXTT11=
EXTT12=
EXTT13=
EXTT14=
EXTT15=
EXTT16=
EXTT17=
EXTT18=
EXTT19=
EXTT20=
EXTT21=
EXTT22=
EXTT23=
EXTT24=
EXTT25=
PLAYORDER=
